<?xml version="1.0" standalone="no"?>
<!DOCTYPE svg PUBLIC "-//W3C//DTD SVG 20010904//EN"
 "http://www.w3.org/TR/2001/REC-SVG-20010904/DTD/svg10.dtd">
<svg version="1.0" xmlns="http://www.w3.org/2000/svg"
 width="1058.000000pt" height="1058.000000pt" viewBox="0 0 1058.000000 1058.000000"
 preserveAspectRatio="xMidYMid meet">
<metadata>
Created by potrace 1.11, written by Peter Selinger 2001-2013
</metadata>
<g transform="translate(0.000000,1058.000000) scale(0.100000,-0.100000)"
fill="#000000" stroke="none">
<path d="M4828 10560 c-40 -12 -81 -39 -101 -66 -17 -22 -47 -149 -47 -196 0
-18 2 -19 17 -7 17 13 17 12 0 -13 l-17 -28 29 0 c28 0 28 -1 24 -47 -3 -27
-9 -63 -13 -80 -7 -26 -5 -33 7 -33 13 0 13 -2 -1 -15 -16 -17 -41 -119 -32
-134 4 -5 2 -12 -4 -16 -6 -4 -8 -10 -5 -15 3 -5 -1 -15 -9 -23 -31 -30 -20
-87 19 -105 14 -6 25 -20 25 -30 0 -10 6 -24 13 -31 10 -10 9 -12 -3 -9 -12 2
-15 -11 -15 -79 1 -45 -3 -79 -7 -77 -4 3 -7 -19 -7 -48 -1 -81 -8 -181 -14
-198 -3 -8 -8 -42 -11 -74 -5 -48 -3 -63 11 -78 12 -14 13 -17 2 -13 -11 4
-14 -5 -15 -35 -1 -25 2 -38 8 -34 11 7 0 -37 -11 -46 -3 -3 -7 -10 -8 -16 -5
-27 -25 -267 -29 -339 -2 -44 -6 -97 -10 -118 -5 -30 -3 -36 9 -31 26 10 25
-38 -1 -63 -21 -19 -23 -30 -20 -83 1 -33 1 -60 -2 -60 -3 0 -5 -15 -4 -32 0
-18 -3 -40 -7 -48 -4 -9 -10 -64 -13 -124 -3 -59 -9 -112 -12 -118 -4 -6 -2
-8 4 -4 11 7 10 -7 -3 -37 -4 -10 -5 -38 -2 -62 2 -25 1 -42 -4 -39 -5 3 -10
-14 -10 -38 -2 -56 1 -72 12 -76 5 -2 9 -8 9 -13 0 -4 -6 -6 -13 -3 -17 6 -21
-54 -5 -73 7 -9 7 -13 -2 -13 -8 0 -11 -9 -8 -25 3 -13 2 -23 -1 -21 -4 3 -7
-25 -8 -60 -1 -40 3 -64 10 -64 6 0 3 -6 -7 -13 -15 -11 -18 -33 -20 -155 -2
-124 -1 -142 13 -143 14 0 14 -1 1 -7 -10 -5 -16 -25 -18 -58 -3 -42 0 -53 15
-59 17 -7 17 -8 -2 -15 -19 -9 -19 -9 3 -16 28 -8 28 -28 1 -55 -17 -17 -19
-28 -13 -64 3 -25 10 -42 15 -39 5 3 9 -2 9 -11 0 -11 -5 -15 -15 -11 -12 4
-15 -4 -15 -42 0 -26 -3 -57 -6 -69 -5 -17 -2 -23 10 -23 9 0 16 -4 16 -10 0
-5 -6 -7 -13 -4 -9 3 -19 -12 -30 -47 -9 -28 -15 -55 -12 -59 3 -5 0 -10 -6
-12 -6 -2 -11 -16 -11 -30 0 -16 -5 -25 -12 -22 -7 3 -18 -7 -26 -21 -7 -14
-17 -25 -22 -25 -4 0 -8 -9 -8 -20 0 -11 -6 -20 -14 -20 -17 0 -49 -77 -39
-93 4 -7 -1 -6 -11 2 -15 13 -19 13 -26 0 -12 -19 -38 -54 -84 -112 -26 -33
-39 -60 -38 -79 1 -28 -12 -38 -21 -15 -3 6 -11 -3 -18 -20 -8 -18 -17 -33
-21 -33 -4 0 -8 -5 -8 -10 0 -6 -9 -21 -20 -32 -12 -13 -18 -29 -14 -40 3 -10
1 -18 -5 -18 -6 0 -8 -7 -5 -15 4 -10 0 -15 -11 -15 -12 0 -16 -6 -12 -20 3
-10 0 -21 -7 -24 -6 -2 -4 -5 4 -5 9 -1 16 -10 17 -21 2 -23 -7 -26 -25 -8 -6
6 -15 9 -18 5 -4 -3 1 -13 10 -22 18 -18 22 -45 6 -45 -5 0 -7 8 -4 18 5 15 4
15 -6 -1 -9 -14 -9 -22 1 -33 17 -21 5 -28 -23 -13 -12 6 -20 8 -16 4 4 -5 3
-14 -3 -21 -7 -9 -6 -22 4 -46 16 -35 19 -70 5 -62 -4 3 -8 -4 -8 -15 0 -11
-4 -22 -10 -26 -5 -3 -7 -13 -4 -23 5 -13 4 -14 -4 -3 -16 23 -20 0 -21 -126
0 -90 3 -126 13 -135 11 -11 11 -15 -2 -24 -10 -7 -12 -16 -7 -25 11 -17 12
-57 3 -87 -5 -13 -8 -357 -8 -765 0 -408 0 -1101 0 -1539 0 -440 3 -798 8
-798 11 0 9 -30 -2 -49 -5 -8 -3 -17 5 -22 10 -6 11 -9 2 -9 -17 0 -18 -161
-1 -178 8 -8 8 -12 1 -12 -8 0 -11 -125 -12 -420 -2 -348 0 -421 12 -425 10
-4 13 -26 12 -85 -1 -51 2 -80 9 -80 8 0 8 -3 1 -8 -6 -4 -12 -20 -13 -37 -1
-23 1 -26 8 -15 6 9 10 10 10 3 0 -6 -4 -14 -9 -18 -14 -8 -9 -46 6 -41 9 4
10 0 1 -20 -10 -20 -9 -27 3 -35 11 -7 11 -9 0 -9 -11 0 -12 -15 -7 -78 8 -94
9 -103 20 -120 4 -7 5 -16 2 -19 -3 -3 1 -18 9 -33 8 -15 11 -30 8 -34 -4 -3
-1 -6 6 -6 8 0 11 -7 7 -15 -4 -11 3 -19 22 -27 15 -6 22 -12 15 -15 -7 -3
-13 -9 -13 -15 0 -6 7 -8 15 -4 8 3 14 2 14 -2 -5 -35 14 -58 24 -29 2 6 3 3
1 -8 -2 -15 11 -31 47 -58 27 -20 56 -37 64 -37 8 0 17 -4 20 -10 3 -5 15 -15
27 -21 16 -9 19 -8 12 3 -5 8 2 6 19 -5 29 -19 68 -15 64 6 -1 6 6 13 16 15 9
2 17 -2 17 -8 0 -6 -4 -8 -10 -5 -5 3 -10 1 -10 -4 0 -6 7 -11 15 -11 8 0 15
-9 15 -20 0 -26 8 -25 39 2 14 13 20 16 14 8 -18 -20 -16 -29 7 -27 11 1 20 7
20 13 0 27 35 25 57 -3 20 -25 23 -26 23 -8 0 16 7 21 31 21 17 1 35 7 39 13
5 9 10 8 19 -3 8 -10 9 -16 1 -21 -5 -3 -10 -12 -10 -18 0 -7 4 -6 10 3 8 12
10 12 16 -3 3 -9 15 -17 26 -17 10 0 17 4 13 9 -3 5 -1 12 4 16 5 3 14 -3 20
-12 11 -19 15 -8 11 30 -1 16 1 16 19 5 23 -14 27 -24 11 -30 -6 -2 3 -8 20
-15 16 -6 28 -7 24 -2 -3 5 0 9 6 9 7 0 10 7 6 15 -3 9 0 15 9 15 8 0 15 -5
15 -11 0 -6 7 -8 16 -5 12 5 15 2 10 -9 -3 -9 1 -18 10 -22 21 -8 32 6 14 17
-13 9 -13 10 0 11 8 0 25 2 37 5 15 2 24 -2 28 -16 4 -11 10 -20 15 -20 6 0 6
9 1 23 -9 22 -7 23 27 20 19 -1 39 -8 43 -15 13 -20 -12 -23 -27 -4 -9 12 -14
14 -19 5 -9 -14 10 -27 53 -35 24 -5 38 -2 54 12 15 14 22 16 25 7 3 -7 9 -13
14 -13 6 0 7 5 4 10 -4 6 5 10 19 10 16 0 26 -6 26 -15 0 -8 8 -15 18 -15 27
0 34 11 19 29 -6 8 3 5 21 -8 29 -20 32 -21 32 -4 0 12 3 14 8 6 11 -17 59
-27 67 -14 3 6 10 9 15 6 4 -3 14 3 21 12 12 15 12 16 -3 10 -10 -3 -18 -3
-18 2 0 5 9 11 20 14 11 3 18 1 15 -3 -3 -4 11 -17 29 -28 30 -18 34 -18 29
-4 -4 9 -11 20 -17 24 -6 4 -1 8 12 8 12 0 21 -3 21 -8 -6 -38 -1 -40 84 -36
45 3 107 7 137 10 55 4 92 6 107 3 4 -1 25 -1 46 0 26 1 37 5 37 17 0 8 -4 12
-10 9 -5 -3 -10 -1 -10 4 0 6 7 11 15 11 8 0 15 -7 15 -16 0 -14 2 -14 16 1
11 10 19 13 23 6 4 -5 15 -10 26 -10 11 0 32 -2 47 -4 15 -2 25 -1 23 4 -3 4
-1 10 5 14 5 3 10 -2 10 -11 0 -10 3 -14 8 -10 7 7 8 12 11 38 0 6 4 8 8 5 3
-4 12 -2 20 4 8 7 13 8 13 1 0 -5 9 -8 20 -5 14 4 20 0 20 -12 0 -9 6 -15 13
-12 6 2 11 11 11 20 -1 9 4 13 12 10 7 -2 10 -12 7 -21 -5 -14 -2 -13 14 3 11
11 19 23 16 27 -2 4 3 5 12 1 10 -3 21 0 27 8 7 10 7 8 3 -9 -6 -22 -5 -22 54
8 33 17 66 39 73 49 7 10 23 21 36 25 12 4 30 20 40 34 9 15 22 31 29 35 34
21 85 189 83 270 -1 18 1 59 4 92 3 33 7 126 8 207 2 82 6 148 9 148 5 0 12
195 11 290 0 8 0 866 0 1905 0 1040 0 1904 0 1920 -4 166 -3 224 7 301 9 64 9
113 2 171 -9 75 -43 227 -58 263 -3 8 -7 18 -7 22 -1 3 -4 10 -8 14 -5 4 -8
15 -8 24 0 35 -104 217 -188 329 -223 295 -243 326 -275 416 -25 73 -29 97
-34 260 -3 109 -10 186 -17 194 -8 11 -8 13 0 8 14 -8 23 51 13 80 -3 10 -3
27 1 38 8 22 -12 80 -23 69 -4 -4 -7 -2 -7 4 0 7 8 12 18 12 13 0 17 8 16 41
0 23 -7 45 -15 50 -12 8 -12 10 1 19 13 8 12 11 -5 25 -11 9 -14 14 -7 10 14
-7 29 24 15 34 -5 3 -9 40 -10 81 0 105 -12 190 -27 196 -8 3 -11 15 -8 32 l6
27 7 -25 c6 -22 7 -21 8 10 1 46 -9 81 -21 74 -6 -4 -5 2 1 14 14 26 14 69 1
77 -5 3 -7 19 -3 35 7 37 -7 132 -16 108 -11 -32 -32 -4 -29 39 2 32 6 39 21
35 23 -6 22 14 -3 31 -18 13 -19 15 -5 21 16 6 16 38 1 76 -6 15 -16 73 -18
100 0 8 3 24 7 34 6 14 5 17 -3 12 -8 -5 -12 0 -12 13 0 12 4 21 10 21 10 0 2
149 -10 165 -4 6 -7 24 -6 40 1 17 -5 36 -13 43 -14 10 -14 12 -1 10 13 -3 14
12 12 92 -2 60 -9 103 -18 117 -8 12 -14 29 -14 38 0 9 -4 13 -10 10 -14 -9
-12 9 2 23 10 10 10 15 -1 21 -11 7 -11 9 0 14 9 4 7 6 -5 6 -18 1 -18 3 5 28
21 23 21 25 5 19 -19 -6 -19 -6 -3 12 17 19 22 44 10 55 -3 4 -6 36 -5 72 0
44 -4 69 -14 79 -10 11 -11 15 -1 19 8 3 3 12 -13 25 -15 13 -19 21 -11 22 8
0 11 6 7 16 -3 8 -2 13 2 10 4 -2 9 16 10 42 2 48 -14 95 -29 86 -5 -3 -6 2
-3 10 3 9 10 13 15 10 5 -3 9 0 9 5 0 10 -22 16 -45 11 -5 -1 -1 8 9 19 11 12
15 21 10 21 -5 0 -1 7 9 14 17 13 14 51 -4 40 -13 -8 -11 10 3 24 10 10 10 15
-2 22 -10 6 -11 10 -3 10 7 0 10 6 7 13 -2 7 9 26 25 41 17 16 28 33 25 38 -3
4 -1 8 4 8 5 0 9 14 9 30 0 23 -5 30 -19 30 -15 0 -17 3 -8 19 11 21 3 54 -11
45 -5 -3 -9 -15 -9 -26 0 -12 -3 -18 -7 -15 -3 4 0 24 7 46 10 30 10 49 0 92
-7 30 -14 70 -15 89 -2 19 -6 54 -10 78 -6 42 -6 42 26 42 27 0 30 2 19 15 -7
9 -10 18 -6 22 3 3 6 1 6 -5 0 -7 5 -12 10 -12 19 0 -18 185 -44 225 -9 14
-35 35 -59 47 -42 23 -45 23 -497 25 -250 1 -467 -2 -482 -7z m-147 -727 c-8
-15 -10 -15 -11 -2 0 17 10 32 18 25 2 -3 -1 -13 -7 -23z m1229 17 c0 -5 -5
-10 -11 -10 -5 0 -7 5 -4 10 3 6 8 10 11 10 2 0 4 -4 4 -10z m-1186 -425 c3
-9 0 -15 -9 -15 -9 0 -12 6 -9 15 4 8 7 15 9 15 2 0 5 -7 9 -15z m1293 -1710
c0 -8 -4 -15 -9 -15 -10 0 -11 14 -1 23 9 10 10 9 10 -8z m-1457 -349 c0 -3
-4 -8 -10 -11 -5 -3 -10 -1 -10 4 0 6 5 11 10 11 6 0 10 -2 10 -4z m-13 -73
c-3 -10 -5 -4 -5 12 0 17 2 24 5 18 2 -7 2 -21 0 -30z m3 -213 c0 -5 -2 -10
-4 -10 -3 0 -8 5 -11 10 -3 6 -1 10 4 10 6 0 11 -4 11 -10z m1500 -50 c0 -5
-5 -10 -11 -10 -5 0 -7 5 -4 10 3 6 8 10 11 10 2 0 4 -4 4 -10z m-1830 -855
c-7 -9 -15 -13 -19 -10 -3 3 1 10 9 15 21 14 24 12 10 -5z m-200 -455 c0 -5
-5 -10 -11 -10 -5 0 -7 5 -4 10 3 6 8 10 11 10 2 0 4 -4 4 -10z m-7 -5183 c3
-8 0 -14 -7 -14 -7 0 -13 6 -13 14 0 7 4 13 8 13 4 0 9 -6 12 -13z m327 -437
c0 -5 -4 -10 -10 -10 -5 0 -10 5 -10 10 0 6 5 10 10 10 6 0 10 -4 10 -10z
m1020 -70 c0 -5 -5 -10 -11 -10 -5 0 -7 5 -4 10 3 6 8 10 11 10 2 0 4 -4 4
-10z"/>
<path d="M4620 8488 c0 -12 3 -18 7 -14 11 10 12 36 2 36 -5 0 -9 -10 -9 -22z"/>
<path d="M3960 5641 c0 -12 0 -23 0 -26 0 -3 3 -6 7 -7 10 -4 11 42 1 48 -4 3
-8 -4 -8 -15z"/>
<path d="M4380 59 c0 -5 5 -7 10 -4 6 3 10 8 10 11 0 2 -4 4 -10 4 -5 0 -10
-5 -10 -11z"/>
<path d="M4512 50 c0 -14 2 -19 5 -12 2 6 2 18 0 25 -3 6 -5 1 -5 -13z"/>
<path d="M4945 30 c-8 -13 -1 -24 14 -19 6 3 7 10 2 18 -6 10 -10 10 -16 1z"/>
</g>
</svg>
